<?xml version="1.0" encoding="utf-8"?><svg width="1511" height="936" viewBox="0 0 1511 936" xmlns="http://www.w3.org/2000/svg" xmlns:xlink="http://www.w3.org/1999/xlink"><svg viewBox="1573.54 113.3 808.16 813.41" width="808.16" height="813.41" id="borromean-rings" xmlns="http://www.w3.org/2000/svg"><defs><style>.aa{opacity:.75}.ab{fill:none;stroke:#acebae;stroke-width:9px}</style></defs><g class="aa" transform="translate(1644.087 183.848)"><circle class="ab" cx="228.253" cy="228.253" r="228.253" transform="rotate(-18.651 326.303 -422.91)"/><circle class="ab" cx="228.253" cy="228.253" r="228.253" transform="rotate(-18.651 440.406 271.956)"/><circle class="ab" cx="228.253" cy="228.253" r="228.253" transform="rotate(-18.651 977.814 -173.176)"/></g></svg><svg id="borromean-rings-animated" viewBox="-1 -1 702 702" width="702" height="702" x="808.16" xmlns="http://www.w3.org/2000/svg"><style>.bst0{opacity:.75}.bst1{fill:#acebae}.brotation-animation{animation:rotateRings ease-in-out 10s;animation-iteration-count:infinite;animation-direction:alternate;transform-origin:50% 50%;transform:translateZ(0);-webkit-animation:rotateRings ease-in-out 10s;-webkit-animation-iteration-count:infinite;-webkit-transform-origin:50% 50%;-webkit-animation-direction:alternate;-webkit-transform:translateZ(0)}@keyframes rotateRings{0%{transform:rotate(0deg) scaleX(1) scaleY(1)}50%{transform:rotate(180deg) scaleX(.75) scaleY(.75)}to{transform:rotate(360deg) scaleX(1) scaleY(1)}}@-webkit-keyframes rotateRings{0%{-webkit-transform:rotate(0deg) scaleX(1) scaleY(1)}50%{-webkit-transform:rotate(180deg) scaleX(.75) scaleY(.75)}to{-webkit-transform:rotate(360deg) scaleX(1) scaleY(1)}}{transform:rotate(180deg) scaleX(.75) scaleY(.75)}to{transform:rotate(360deg) scaleX(1) scaleY(1)}}@-webkit-keyframes rotateRings{0%{-webkit-transform:rotate(0deg) scaleX(1) scaleY(1)}50%{-webkit-transform:rotate(180deg) scaleX(.75) scaleY(.75)}to{-webkit-transform:rotate(360deg) scaleX(1) scaleY(1)}}{transform:rotate(360deg) scaleX(1) scaleY(1)}}@-webkit-keyframes rotateRings{0%{-webkit-transform:rotate(0deg) scaleX(1) scaleY(1)}50%{-webkit-transform:rotate(180deg) scaleX(.75) scaleY(.75)}to{-webkit-transform:rotate(360deg) scaleX(1) scaleY(1)}}}@-webkit-keyframes rotateRings{0%{-webkit-transform:rotate(0deg) scaleX(1) scaleY(1)}50%{-webkit-transform:rotate(180deg) scaleX(.75) scaleY(.75)}to{-webkit-transform:rotate(360deg) scaleX(1) scaleY(1)}}{-webkit-transform:rotate(180deg) scaleX(.75) scaleY(.75)}to{-webkit-transform:rotate(360deg) scaleX(1) scaleY(1)}}{-webkit-transform:rotate(360deg) scaleX(1) scaleY(1)}}}</style><g class="brotation-animation"><g transform="translate(1644.087 183.848)" class="bst0"><path class="bst1" d="M-1192.4-140c21.1 0 42 3.3 62.2 9.7 20 6.3 38.7 15.6 55.9 27.6 35.5 24.9 61.7 59.7 75.6 100.7 17.4 51.1 13.8 105.9-10.2 154.3-11.8 23.7-27.8 44.7-47.6 62.2-20.5 18.1-44.3 31.8-70.5 40.6-21.2 7.1-43.3 10.7-65.4 10.7-21.1 0-42-3.3-62.2-9.7-20-6.3-38.8-15.6-55.9-27.6-35.5-24.9-61.7-59.7-75.6-100.7-17.4-51.1-13.8-105.9 10.2-154.3 11.8-23.7 27.8-44.7 47.6-62.2 20.5-18.1 44.3-31.8 70.5-40.6 21.1-7.1 43.1-10.7 65.4-10.7m-.1-10c-22.7 0-45.9 3.6-68.6 11.2-112.2 37.6-172.5 158.4-134.6 269.7 30.2 88.8 113.7 144.8 203.2 144.8 22.7 0 45.9-3.6 68.6-11.2C-1011.7 227-951.4 106.2-989.3-5.2-1019.5-94-1103-150-1192.5-150z"/><path class="bst1" d="M-1395.6-71.9c21.1 0 42 3.3 62.2 9.7 20 6.3 38.7 15.6 55.9 27.6 35.5 24.9 61.7 59.7 75.6 100.7 17.4 51.1 13.8 105.9-10.2 154.3-11.8 23.7-27.8 44.7-47.6 62.2-20.5 18.1-44.3 31.8-70.5 40.6-21.2 7.1-43.3 10.7-65.4 10.7-21.1 0-42-3.3-62.2-9.7-20-6.3-38.8-15.6-55.9-27.6-35.5-24.9-61.7-59.7-75.6-100.7-17.4-51.1-13.8-105.9 10.2-154.3 11.8-23.7 27.8-44.7 47.6-62.2 20.5-18.1 44.3-31.8 70.5-40.6 21.1-7.1 43.1-10.7 65.4-10.7m-.1-10c-22.7 0-45.9 3.6-68.6 11.2-112.2 37.6-172.5 158.4-134.6 269.7 30.2 88.8 113.7 144.8 203.2 144.8 22.7 0 45.9-3.6 68.6-11.2 112.2-37.6 172.5-158.4 134.6-269.7-30.2-88.8-113.7-144.9-203.2-144.8z"/><path class="bst1" d="M-1235.3 66.5c21.1 0 42 3.3 62.2 9.7 20 6.3 38.7 15.6 55.9 27.6 35.5 24.9 61.7 59.7 75.6 100.7 17.4 51.1 13.8 105.9-10.2 154.3-11.8 23.7-27.8 44.7-47.6 62.2-20.5 18.1-44.3 31.8-70.5 40.6-21.2 7.1-43.3 10.7-65.4 10.7-21.1 0-42-3.3-62.2-9.7-20-6.3-38.8-15.6-55.9-27.6-35.5-24.9-61.7-59.7-75.6-100.7-17.4-51.1-13.8-105.9 10.2-154.3 11.8-23.7 27.8-44.7 47.6-62.2 20.5-18.1 44.3-31.8 70.5-40.6 21.1-7.1 43.1-10.7 65.4-10.7m-.1-10c-22.7 0-45.9 3.6-68.6 11.2-112.2 37.6-172.5 158.4-134.6 269.7 30.2 88.8 113.7 144.8 203.2 144.8 22.7 0 45.9-3.6 68.6-11.2 112.2-37.6 172.5-158.4 134.6-269.7-30.2-88.8-113.7-144.8-203.2-144.8z"/></g></g></svg><svg viewBox="-278 346 58 102" width="58" height="102" id="hex" x="808.16" y="702" xmlns="http://www.w3.org/2000/svg"><path stroke="#eee" stroke-width="2" d="M-249 413l-28-16v-34l28-16 28 16v34l-28 16v34" fill="none"/><path stroke="#dedede" stroke-width="2" d="M-249 347v34l-28 16v34l28 16 28-16v-34l-28-16" fill="none"/></svg><svg viewBox="1254 1599 122 122" width="122" height="122" id="ic_chevron_right" y="813.41" xmlns="http://www.w3.org/2000/svg"><defs><style>.da{fill:none}.db{fill-rule:evenodd;opacity:.54}</style></defs><g transform="translate(822 1522)"><path class="da" d="M433 78h120v120H433z"/><path class="db" d="M476 115l7-7 30 30-30 30-7-7 23-23z"/></g></svg><svg viewBox="12 12 26 26" width="26" height="26" id="ic_menu" x="866.16" y="702" xmlns="http://www.w3.org/2000/svg"><defs><style>.ea{fill:none}.eb{fill:#fff;fill-rule:evenodd;opacity:.9}</style></defs><g transform="translate(-732 -65)"><path class="ea" d="M745 78h24v24h-24z"/><path class="eb" d="M748 96h18v-2h-18v2zm0-5h18v-2h-18v2zm0-7v2h18v-2z"/></g></svg></svg>