<?xml version="1.0" encoding="utf-8"?>
<!-- Generator: Adobe Illustrator 21.1.0, SVG Export Plug-In . SVG Version: 6.00 Build 0)  -->
<svg version="1.1" id="Layer_1" xmlns="http://www.w3.org/2000/svg" xmlns:xlink="http://www.w3.org/1999/xlink" x="0px" y="0px"
   viewBox="0 0 700 700" style="enable-background:new 0 0 700 700;" xml:space="preserve">
<style type="text/css">
  .st0{opacity:0.75;}
  .st1{fill:#ACEBAE;}
  .rotation-animation{
  animation: rotateRings ease-in-out 10s;
  animation-iteration-count: infinite;
  animation-direction: alternate;
  transform-origin: 50% 50%;
  transform: translateZ(0);
  -webkit-animation: rotateRings ease-in-out 10s;
  -webkit-animation-iteration-count: infinite;
  -webkit-transform-origin: 50% 50%;
  -webkit-animation-direction: alternate;
  -webkit-transform: translateZ(0);
}

@keyframes rotateRings{
  0% {
    transform:  rotate(0deg) scaleX(1.00) scaleY(1.00) ;
  }
  50% {
    transform:  rotate(180deg) scaleX(0.75) scaleY(0.75) ;
  }
  100% {
    transform:  rotate(360deg) scaleX(1.00) scaleY(1.00) ;
  }
}

@-webkit-keyframes rotateRings {
  0% {
    -webkit-transform:  rotate(0deg) scaleX(1.00) scaleY(1.00) ;
  }
  50% {
    -webkit-transform:  rotate(180deg) scaleX(0.75) scaleY(0.75) ;
  }
  100% {
    -webkit-transform:  rotate(360deg) scaleX(1.00) scaleY(1.00) ;
  }
}
</style>
<g class="rotation-animation">
  <g transform="translate(1644.087 183.848)" class="st0">
    <path class="st1" d="M-1192.4-140c21.1,0,42,3.3,62.2,9.7c20,6.3,38.7,15.6,55.9,27.6c35.5,24.9,61.7,59.7,75.6,100.7
      c17.4,51.1,13.8,105.9-10.2,154.3c-11.8,23.7-27.8,44.7-47.6,62.2c-20.5,18.1-44.3,31.8-70.5,40.6c-21.2,7.1-43.3,10.7-65.4,10.7
      c-21.1,0-42-3.3-62.2-9.7c-20-6.3-38.8-15.6-55.9-27.6c-35.5-24.9-61.7-59.7-75.6-100.7c-17.4-51.1-13.8-105.9,10.2-154.3
      c11.8-23.7,27.8-44.7,47.6-62.2c20.5-18.1,44.3-31.8,70.5-40.6C-1236.7-136.4-1214.7-140-1192.4-140L-1192.4-140 M-1192.5-150
      c-22.7,0-45.9,3.6-68.6,11.2c-112.2,37.6-172.5,158.4-134.6,269.7c30.2,88.8,113.7,144.8,203.2,144.8c22.7,0,45.9-3.6,68.6-11.2
      C-1011.7,227-951.4,106.2-989.3-5.2C-1019.5-94-1103-150-1192.5-150L-1192.5-150z"/>

    <path class="st1" d="M-1395.6-71.9c21.1,0,42,3.3,62.2,9.7c20,6.3,38.7,15.6,55.9,27.6c35.5,24.9,61.7,59.7,75.6,100.7
      c17.4,51.1,13.8,105.9-10.2,154.3c-11.8,23.7-27.8,44.7-47.6,62.2c-20.5,18.1-44.3,31.8-70.5,40.6c-21.2,7.1-43.3,10.7-65.4,10.7
      c-21.1,0-42-3.3-62.2-9.7c-20-6.3-38.8-15.6-55.9-27.6c-35.5-24.9-61.7-59.7-75.6-100.7c-17.4-51.1-13.8-105.9,10.2-154.3
      c11.8-23.7,27.8-44.7,47.6-62.2c20.5-18.1,44.3-31.8,70.5-40.6C-1439.9-68.3-1417.9-71.9-1395.6-71.9L-1395.6-71.9 M-1395.7-81.9
      c-22.7,0-45.9,3.6-68.6,11.2c-112.2,37.6-172.5,158.4-134.6,269.7c30.2,88.8,113.7,144.8,203.2,144.8c22.7,0,45.9-3.6,68.6-11.2
      c112.2-37.6,172.5-158.4,134.6-269.7C-1222.7-25.9-1306.2-82-1395.7-81.9L-1395.7-81.9z"/>

    <path class="st1" d="M-1235.3,66.5c21.1,0,42,3.3,62.2,9.7c20,6.3,38.7,15.6,55.9,27.6c35.5,24.9,61.7,59.7,75.6,100.7
      c17.4,51.1,13.8,105.9-10.2,154.3c-11.8,23.7-27.8,44.7-47.6,62.2c-20.5,18.1-44.3,31.8-70.5,40.6c-21.2,7.1-43.3,10.7-65.4,10.7
      c-21.1,0-42-3.3-62.2-9.7c-20-6.3-38.8-15.6-55.9-27.6c-35.5-24.9-61.7-59.7-75.6-100.7c-17.4-51.1-13.8-105.9,10.2-154.3
      c11.8-23.7,27.8-44.7,47.6-62.2c20.5-18.1,44.3-31.8,70.5-40.6C-1279.6,70.1-1257.6,66.5-1235.3,66.5L-1235.3,66.5 M-1235.4,56.5
      c-22.7,0-45.9,3.6-68.6,11.2c-112.2,37.6-172.5,158.4-134.6,269.7c30.2,88.8,113.7,144.8,203.2,144.8c22.7,0,45.9-3.6,68.6-11.2
      c112.2-37.6,172.5-158.4,134.6-269.7C-1062.4,112.5-1145.9,56.5-1235.4,56.5L-1235.4,56.5z"/>
  </g>
</g>
</svg>
